<svg xmlns="http://www.w3.org/2000/svg" width="85.667" height="90" viewBox="0 0 85.667 90">
  <g id="Group_8" data-name="Group 8" transform="translate(-1094.333 -1596)">
    <circle id="Ellipse_6" data-name="Ellipse 6" cx="25" cy="25" r="25" transform="translate(1094.333 1596)" fill="#fcc020"/>
    <ellipse id="Ellipse_9" data-name="Ellipse 9" cx="36" cy="35" rx="36" ry="35" transform="translate(1108 1616)" fill="#fff"/>
    <path id="iconmonstr-wrench-1" d="M8.454.44,15.539,6.89c.768,3.231-4.377,7.972-7.97,7.257L.485,7.7A9.954,9.954,0,0,0,0,10.763a10.2,10.2,0,0,0,3.438,7.571A12.462,12.462,0,0,0,12.7,21.45a6.376,6.376,0,0,1,4.723,1.593L35.578,39.571a5.846,5.846,0,0,0,3.94,1.485,5.329,5.329,0,0,0,5.572-5.183,4.854,4.854,0,0,0-1.631-3.478L25.307,15.864a5.223,5.223,0,0,1-1.749-4.3A10.2,10.2,0,0,0,20.138,3.13,12.332,12.332,0,0,0,11.819,0,13.081,13.081,0,0,0,8.454.44ZM41.332,35.923a1.887,1.887,0,1,1-1.879-1.711A1.8,1.8,0,0,1,41.332,35.923Z" transform="translate(1122 1626)" fill="#020ca3"/>
  </g>
</svg>
