<svg width="183" height="140" viewBox="0 0 183 140" fill="none" xmlns="http://www.w3.org/2000/svg">
<g filter="url(#filter0_d)">
<path d="M65.3333 24.8329H75.5108V69.0392C75.5108 71.8496 73.2325 74.128 70.422 74.128C67.6116 74.128 65.3333 71.8496 65.3333 69.0392V24.8329Z" fill="#0D1698"/>
</g>
<path d="M65.9995 34.8256L66.0154 24.8183L104.227 24.8768C106.991 24.8811 109.227 27.1247 109.223 29.8881V29.8881C109.219 32.6516 106.975 34.8883 104.212 34.8841L65.9995 34.8256Z" fill="#0D1698"/>
<ellipse cx="92.285" cy="49.4803" rx="6.59657" ry="6.4862" fill="#F80247"/>
<path d="M133.315 46.33C133.315 71.32 112.038 91.6599 85.6884 91.6599C59.3391 91.6599 38.0623 71.32 38.0623 46.33C38.0623 21.34 59.3391 1 85.6884 1C112.038 1 133.315 21.34 133.315 46.33Z" stroke="#0D1698" stroke-width="2"/>
<path d="M10.764 115.672C11.7 115.672 12.564 115.996 13.248 116.464L14.508 113.08C13.5 112.36 11.988 112.036 10.44 112.036C5.976 112.036 3.564 114.664 3.564 118.696V119.92H0.396V123.52H3.564V139H8.064V123.52H13.212V119.92H7.92V118.768C7.92 116.716 8.892 115.672 10.764 115.672ZM23.4079 122.584V119.776H19.1239V139H23.6239V129.676C23.6239 125.752 25.7839 123.736 29.2039 123.736C29.5279 123.736 29.8519 123.772 30.2479 123.844V119.56C27.0439 119.56 24.7039 120.568 23.4079 122.584ZM42.5295 139.252C48.5055 139.252 52.7895 135.148 52.7895 129.388C52.7895 123.628 48.5055 119.56 42.5295 119.56C36.6255 119.56 32.3055 123.628 32.3055 129.388C32.3055 135.148 36.6255 139.252 42.5295 139.252ZM42.5295 135.4C39.2895 135.4 36.8415 133.06 36.8415 129.388C36.8415 125.716 39.2895 123.376 42.5295 123.376C45.8055 123.376 48.2535 125.716 48.2535 129.388C48.2535 133.06 45.8055 135.4 42.5295 135.4ZM68.0006 119.56C65.1926 119.56 62.8526 120.496 61.3766 122.26V119.776H57.0926V139H61.5926V129.28C61.5926 125.428 63.7526 123.484 66.9566 123.484C69.8366 123.484 71.5286 125.14 71.5286 128.56V139H76.0286V127.984C76.0286 122.188 72.6086 119.56 68.0006 119.56ZM89.0812 119.56C85.9852 119.56 82.9972 120.352 80.9452 121.936L82.7092 125.212C84.1492 124.024 86.3812 123.304 88.5412 123.304C91.7452 123.304 93.3292 124.852 93.3292 127.48V127.768H88.3612C82.5292 127.768 80.3692 130.288 80.3692 133.492C80.3692 136.84 83.1412 139.252 87.5332 139.252C90.4132 139.252 92.5012 138.316 93.5812 136.66V139H97.8292V127.732C97.8292 122.188 94.6252 119.56 89.0812 119.56ZM88.4692 135.976C86.1652 135.976 84.7972 134.932 84.7972 133.312C84.7972 131.908 85.6252 130.756 88.6852 130.756H93.3292V132.988C92.5732 134.968 90.6652 135.976 88.4692 135.976ZM129.245 119.776L124.025 134.032L118.841 119.776H115.061L109.769 133.96L104.693 119.776H100.445L107.501 139H111.821L116.861 125.752L121.829 139H126.149L133.241 119.776H129.245ZM153.879 129.496C153.879 123.484 149.775 119.56 144.159 119.56C138.435 119.56 134.223 123.664 134.223 129.388C134.223 135.112 138.399 139.252 144.843 139.252C148.155 139.252 150.855 138.172 152.583 136.12L150.171 133.348C148.803 134.752 147.111 135.436 144.951 135.436C141.603 135.436 139.263 133.636 138.723 130.828H153.807C153.843 130.396 153.879 129.856 153.879 129.496ZM144.159 123.16C147.111 123.16 149.235 125.068 149.595 127.84H138.687C139.119 125.032 141.243 123.16 144.159 123.16ZM168.858 119.56C166.41 119.56 164.25 120.388 162.702 122.116V112.288H158.202V139H162.486V136.516C163.998 138.352 166.23 139.252 168.858 139.252C174.474 139.252 178.614 135.364 178.614 129.388C178.614 123.412 174.474 119.56 168.858 119.56ZM168.354 135.4C165.114 135.4 162.63 133.06 162.63 129.388C162.63 125.716 165.114 123.376 168.354 123.376C171.594 123.376 174.042 125.716 174.042 129.388C174.042 133.06 171.594 135.4 168.354 135.4Z" fill="#0D1698"/>
<defs>
<filter id="filter0_d" x="61.3333" y="24.8329" width="18.1776" height="57.2951" filterUnits="userSpaceOnUse" color-interpolation-filters="sRGB">
<feFlood flood-opacity="0" result="BackgroundImageFix"/>
<feColorMatrix in="SourceAlpha" type="matrix" values="0 0 0 0 0 0 0 0 0 0 0 0 0 0 0 0 0 0 127 0" result="hardAlpha"/>
<feOffset dy="4"/>
<feGaussianBlur stdDeviation="2"/>
<feColorMatrix type="matrix" values="0 0 0 0 0 0 0 0 0 0 0 0 0 0 0 0 0 0 0.25 0"/>
<feBlend mode="normal" in2="BackgroundImageFix" result="effect1_dropShadow"/>
<feBlend mode="normal" in="SourceGraphic" in2="effect1_dropShadow" result="shape"/>
</filter>
</defs>
</svg>
