<svg xmlns="http://www.w3.org/2000/svg" width="85.667" height="89" viewBox="0 0 85.667 89">
  <g id="Group_4" data-name="Group 4" transform="translate(-1101.673 -1289)">
    <circle id="Ellipse_2" data-name="Ellipse 2" cx="25" cy="25" r="25" transform="translate(1101.673 1289)" fill="#fcc020"/>
    <g id="Group_3" data-name="Group 3" transform="translate(-31 3)">
      <ellipse id="Ellipse_3" data-name="Ellipse 3" cx="36" cy="35" rx="36" ry="35" transform="translate(1146.34 1305)" fill="#fff"/>
      <path id="path833" d="M4.311,30.324A26.019,26.019,0,0,0,18.973,53.737l-12.41-34A25.915,25.915,0,0,0,4.311,30.324Zm43.578-1.313a13.7,13.7,0,0,0-2.145-7.175c-1.319-2.143-2.555-3.958-2.555-6.1a4.5,4.5,0,0,1,4.369-4.617c.115,0,.225.014.337.021a26.011,26.011,0,0,0-39.3,4.9c.61.018,1.186.031,1.674.031,2.721,0,6.933-.33,6.933-.33a1.075,1.075,0,0,1,.167,2.143s-1.409.166-2.978.248L23.86,46.307l5.693-17.074L25.5,18.127c-1.4-.082-2.728-.248-2.728-.248a1.075,1.075,0,0,1,.164-2.143s4.3.33,6.853.33c2.721,0,6.933-.33,6.933-.33a1.075,1.075,0,0,1,.167,2.143s-1.412.166-2.978.248l9.4,27.965,2.595-8.671c1.125-3.6,1.981-6.183,1.981-8.41ZM30.783,32.6,22.977,55.281a26.029,26.029,0,0,0,15.988-.415,2.284,2.284,0,0,1-.185-.358l-8-21.908ZM53.154,17.843a19.959,19.959,0,0,1,.175,2.675,24.539,24.539,0,0,1-1.978,9.318L43.4,52.811a26.019,26.019,0,0,0,9.75-34.968ZM30.326,0A30.325,30.325,0,1,0,60.654,30.324,30.36,30.36,0,0,0,30.326,0Zm0,59.26A28.935,28.935,0,1,1,59.261,30.324,28.969,28.969,0,0,1,30.326,59.26Z" transform="translate(1151.673 1308.675)" fill="#020ca3"/>
    </g>
  </g>
</svg>
